<svg width="137" height="190" viewBox="0 0 137 190" fill="none" xmlns="http://www.w3.org/2000/svg">
<g id="Group 367">
<path id="Rectangle 413" d="M52.6388 31.9958H84.0908V0.543867H52.6388V31.9958Z" fill="#141414"/>
<path id="Rectangle 418" d="M52.6385 84.635H84.0905V53.183H52.6385V84.635Z" fill="#1C5DDC"/>
<path id="Rectangle 421" d="M52.6385 137.273H84.0905V105.821H52.6385V137.273Z" fill="#141414"/>
<path id="Rectangle 414" d="M-1.71661e-05 32.0007H31.452V0.54875H-1.71661e-05V32.0007Z" fill="#1C5DDC"/>
<path id="Rectangle 419" d="M-1.71661e-05 84.6396H31.452V53.1877H-1.71661e-05V84.6396Z" fill="#141414"/>
<path id="Rectangle 422" d="M-1.71661e-05 137.278H31.452V105.826H-1.71661e-05V137.278Z" fill="#141414"/>
<path id="Rectangle 415" d="M105.278 31.9985H136.73V0.546553H105.278V31.9985Z" fill="#141414"/>
<path id="Rectangle 420" d="M105.277 84.636H136.729V53.184H105.277V84.636Z" fill="#141414"/>
<path id="Rectangle 423" d="M105.277 137.273H136.729V105.821H105.277V137.273Z" fill="#1C5DDC"/>
<path id="Path 142" d="M105.277 159.248V158.462H136.729V189.649H135.942L120.61 174.448L105.277 159.248Z" fill="#1C5DDC"/>
</g>
</svg>
